<svg width="84" height="84" viewBox="0 0 84 84" fill="none" xmlns="http://www.w3.org/2000/svg">
<circle cx="42" cy="42" r="37" fill="#EF7D00" stroke="#FBFBFB" stroke-width="10"/>
<path d="M54 39C55.6406 39 57 37.6875 57 36C57 34.3594 55.6406 33 54 33C52.3125 33 51 34.3594 51 36C51 37.6875 52.3125 39 54 39ZM30 41.25C28.3125 41.25 27 42.6094 27 44.25C27 45.9375 28.3125 47.25 30 47.25C31.6406 47.25 33 45.9375 33 44.25C33 42.6094 31.6406 41.25 30 41.25ZM51.0469 39.5156L50.1562 38.3438L47.9062 40.0312L48.7969 41.2031L51.0469 39.5156ZM54 48C53.2969 48 52.6875 48.2344 52.1719 48.6094L47.6719 45.9375C47.8594 45.4219 48 44.8594 48 44.25C48 41.3438 45.6094 39 42.75 39C42.3281 39 41.9531 39.0469 41.5781 39.1406L39.6562 35.0625C40.1719 34.5 40.5 33.7969 40.5 33C40.5 31.3594 39.1406 30 37.5 30C35.8125 30 34.5 31.3594 34.5 33C34.5 34.6875 35.8125 36 37.5 36C37.5469 36 37.5938 36 37.6406 36L39.5625 40.125C38.2969 41.0625 37.5 42.5625 37.5 44.25C37.5 47.1562 39.8438 49.5 42.75 49.5C44.25 49.5 45.5625 48.8906 46.5469 47.8594L51.0469 50.5781C51 50.7188 51 50.8594 51 51C51 52.6875 52.3125 54 54 54C55.6406 54 57 52.6875 57 51C57 49.3594 55.6406 48 54 48ZM42.75 46.5C41.4844 46.5 40.5 45.5156 40.5 44.25C40.5 43.0312 41.4844 42 42.75 42C43.9688 42 45 43.0312 45 44.25C45 45.5156 43.9688 46.5 42.75 46.5ZM34.125 45H36.375V43.5H34.125V45Z" fill="white"/>
</svg>
