<svg width="84" height="84" viewBox="0 0 84 84" fill="none" xmlns="http://www.w3.org/2000/svg">
<circle cx="42" cy="42" r="37" fill="#32BEF0" stroke="#FBFBFB" stroke-width="10"/>
<path d="M45.6719 34.6406L46.4219 36.9844L42.2031 41.25C41.7344 41.6719 41.7344 42.375 42.2031 42.7969C42.625 43.2656 43.3281 43.2656 43.75 42.7969L48.0156 38.5781L50.3594 39.3281C50.6875 39.4688 51.0625 39.375 51.3438 39.0938L54.2969 36.1406C54.8125 35.625 54.625 34.7812 53.9219 34.5469L51.3438 33.6562L50.4531 31.0781C50.2188 30.375 49.375 30.1875 48.8594 30.7031L45.9062 33.6562C45.7188 33.8438 45.5781 34.125 45.5781 34.3594C45.5781 34.4531 45.625 34.5469 45.6719 34.6406ZM42.1094 39.1406L44.7344 36.5625L44.5938 36.2812C44.0781 36.1406 43.5625 36 43 36C39.6719 36 37 38.7188 37 42C37 45.3281 39.6719 48 43 48C46.2812 48 49 45.3281 49 42C49 41.4375 48.8594 40.9219 48.7188 40.4062L48.4375 40.2656L45.8594 42.8906C45.4844 44.1094 44.3125 45 43 45C41.3125 45 40 43.6875 40 42C40 40.6875 40.8906 39.5156 42.1094 39.1406ZM54.0625 38.5312L52.375 40.1719C52.1406 40.4531 51.8125 40.6406 51.4844 40.7344C51.5781 41.1562 51.625 41.5781 51.625 42C51.625 46.7812 47.7344 50.625 43 50.625C38.2188 50.625 34.375 46.7812 34.375 42C34.375 37.2656 38.2188 33.375 43 33.375C43.4219 33.375 43.8438 33.4219 44.2656 33.5156C44.4062 33.1875 44.5469 32.8594 44.8281 32.625L46.4688 30.9375C45.5312 30.6562 43.9844 30.375 43 30.375C36.5781 30.375 31.375 35.625 31.375 42C31.375 48.4219 36.5781 53.625 43 53.625C49.375 53.625 54.625 48.4219 54.625 42C54.625 40.7812 54.3906 39.6094 54.0625 38.5312Z" fill="white"/>
</svg>
