<svg width="84" height="84" viewBox="0 0 84 84" fill="none" xmlns="http://www.w3.org/2000/svg">
<circle cx="42" cy="42" r="37" fill="#7BC299" stroke="#FBFBFB" stroke-width="10"/>
<path d="M38.9375 49.9219C38.375 49.9219 38 50.3438 38 50.8594V53.0625C38 53.625 38.375 54 38.9375 54H46.0625C46.5781 54 47 53.625 47 53.0625V50.8594C47 50.3438 46.5781 49.9219 46.0625 49.9219H45.125V39.9375C45.125 39.4219 44.7031 39 44.1875 39H38.9375C38.375 39 38 39.4219 38 39.9375V42.1875C38 42.7031 38.375 43.125 38.9375 43.125H39.875V49.9219H38.9375ZM42.5 30C40.625 30 39.125 31.5469 39.125 33.375C39.125 35.25 40.625 36.75 42.5 36.75C44.3281 36.75 45.875 35.25 45.875 33.375C45.875 31.5469 44.3281 30 42.5 30Z" fill="white"/>
</svg>
