<svg width="324" height="76" viewBox="0 0 324 76" fill="none" xmlns="http://www.w3.org/2000/svg">
<path d="M5.866 70.168C7.644 70.168 8.764 69.482 9.786 68.446L9.058 67.732C8.12 68.628 7.238 69.146 5.894 69.146C3.738 69.146 2.1 67.368 2.1 65.1V65.072C2.1 62.818 3.724 61.054 5.894 61.054C7.224 61.054 8.148 61.614 8.974 62.398L9.73 61.586C8.75 60.662 7.686 60.032 5.908 60.032C3.024 60.032 0.952 62.328 0.952 65.1V65.128C0.952 67.942 3.038 70.168 5.866 70.168ZM14.7072 70.168C16.8912 70.168 18.5012 68.432 18.5012 66.388V66.36C18.5012 64.316 16.9052 62.608 14.7352 62.608C12.5512 62.608 10.9552 64.344 10.9552 66.388V66.416C10.9552 68.46 12.5372 70.168 14.7072 70.168ZM14.7352 69.202C13.2092 69.202 12.0612 67.942 12.0612 66.388V66.36C12.0612 64.834 13.1392 63.56 14.7072 63.56C16.2332 63.56 17.3952 64.834 17.3952 66.388V66.416C17.3952 67.942 16.3032 69.202 14.7352 69.202ZM20.454 70H21.532V65.87C21.532 64.54 22.4 63.588 23.548 63.588C24.696 63.588 25.41 64.386 25.41 65.744V70H26.474V65.828C26.474 64.4 27.384 63.588 28.476 63.588C29.652 63.588 30.352 64.372 30.352 65.772V70H31.43V65.52C31.43 63.728 30.408 62.608 28.742 62.608C27.482 62.608 26.712 63.252 26.194 64.05C25.802 63.238 25.046 62.608 23.87 62.608C22.652 62.608 22.008 63.266 21.532 63.98V62.762H20.454V70ZM33.7704 70H34.8484V65.87C34.8484 64.54 35.7164 63.588 36.8644 63.588C38.0124 63.588 38.7264 64.386 38.7264 65.744V70H39.7904V65.828C39.7904 64.4 40.7004 63.588 41.7924 63.588C42.9684 63.588 43.6684 64.372 43.6684 65.772V70H44.7464V65.52C44.7464 63.728 43.7244 62.608 42.0584 62.608C40.7984 62.608 40.0284 63.252 39.5104 64.05C39.1184 63.238 38.3624 62.608 37.1864 62.608C35.9684 62.608 35.3244 63.266 34.8484 63.98V62.762H33.7704V70ZM47.1148 61.18H48.3468V59.99H47.1148V61.18ZM47.1848 70H48.2628V62.762H47.1848V70ZM53.1585 70.14C54.6005 70.14 55.7345 69.342 55.7345 67.97V67.942C55.7345 66.64 54.5305 66.206 53.4105 65.87C52.4445 65.576 51.5485 65.31 51.5485 64.624V64.596C51.5485 63.994 52.0945 63.546 52.9485 63.546C53.6485 63.546 54.4185 63.812 55.0905 64.246L55.5805 63.434C54.8385 62.944 53.8585 62.636 52.9765 62.636C51.5485 62.636 50.5125 63.462 50.5125 64.708V64.736C50.5125 66.066 51.7725 66.458 52.9065 66.78C53.8585 67.046 54.7125 67.326 54.7125 68.054V68.082C54.7125 68.782 54.0825 69.23 53.2145 69.23C52.3605 69.23 51.4925 68.894 50.7085 68.306L50.1625 69.076C50.9745 69.734 52.1225 70.14 53.1585 70.14ZM59.9945 70.14C61.4365 70.14 62.5705 69.342 62.5705 67.97V67.942C62.5705 66.64 61.3665 66.206 60.2465 65.87C59.2805 65.576 58.3845 65.31 58.3845 64.624V64.596C58.3845 63.994 58.9305 63.546 59.7845 63.546C60.4845 63.546 61.2545 63.812 61.9265 64.246L62.4165 63.434C61.6745 62.944 60.6945 62.636 59.8125 62.636C58.3845 62.636 57.3485 63.462 57.3485 64.708V64.736C57.3485 66.066 58.6085 66.458 59.7425 66.78C60.6945 67.046 61.5485 67.326 61.5485 68.054V68.082C61.5485 68.782 60.9185 69.23 60.0505 69.23C59.1965 69.23 58.3285 68.894 57.5445 68.306L56.9985 69.076C57.8105 69.734 58.9585 70.14 59.9945 70.14ZM66.7291 70.154C68.0031 70.154 68.8291 69.566 69.3331 68.922V70H70.3971V65.576C70.3971 64.652 70.1451 63.952 69.6411 63.448C69.1231 62.93 68.3251 62.65 67.3031 62.65C66.2391 62.65 65.4691 62.902 64.6711 63.266L64.9931 64.148C65.6651 63.84 66.3371 63.63 67.1911 63.63C68.5491 63.63 69.3331 64.302 69.3331 65.59V65.814C68.6891 65.632 68.0451 65.506 67.1211 65.506C65.2871 65.506 64.0271 66.318 64.0271 67.872V67.9C64.0271 69.384 65.3711 70.154 66.7291 70.154ZM66.9391 69.286C65.9591 69.286 65.1191 68.754 65.1191 67.844V67.816C65.1191 66.948 65.8891 66.36 67.2331 66.36C68.1151 66.36 68.8151 66.514 69.3471 66.668V67.34C69.3471 68.488 68.2691 69.286 66.9391 69.286ZM72.7086 61.18H73.9406V59.99H72.7086V61.18ZM72.7786 70H73.8566V62.762H72.7786V70ZM76.3583 70H77.4363V67.116C77.4363 64.932 78.7243 63.798 80.3063 63.798H80.3903V62.636C79.0183 62.58 77.9683 63.448 77.4363 64.652V62.762H76.3583V70ZM82.3617 66.822H88.1017C88.1157 66.654 88.1157 66.542 88.1157 66.444C88.1157 64.316 86.8837 62.608 84.7417 62.608C82.7397 62.608 81.2697 64.288 81.2697 66.388C81.2697 68.642 82.8937 70.168 84.8817 70.168C86.2537 70.168 87.1357 69.622 87.8637 68.81L87.1917 68.208C86.6037 68.824 85.9037 69.23 84.9097 69.23C83.6357 69.23 82.5157 68.348 82.3617 66.822ZM82.3617 65.954C82.5157 64.554 83.4677 63.518 84.7137 63.518C86.1417 63.518 86.8977 64.638 87.0237 65.954H82.3617ZM98.9321 70.168C100.584 70.168 101.956 69.482 102.866 68.67V64.764H98.8201V65.758H101.802V68.194C101.13 68.74 100.094 69.174 98.9741 69.174C96.5941 69.174 95.0961 67.438 95.0961 65.1V65.072C95.0961 62.888 96.6501 61.054 98.8201 61.054C100.206 61.054 101.046 61.516 101.802 62.174L102.516 61.334C101.536 60.508 100.514 60.032 98.8621 60.032C95.9221 60.032 93.9481 62.412 93.9481 65.1V65.128C93.9481 67.928 95.8521 70.168 98.9321 70.168ZM107.755 61.67H108.595L110.191 60.158L109.071 59.64L107.755 61.67ZM105.823 66.822H111.563C111.577 66.654 111.577 66.542 111.577 66.444C111.577 64.316 110.345 62.608 108.203 62.608C106.201 62.608 104.731 64.288 104.731 66.388C104.731 68.642 106.355 70.168 108.343 70.168C109.715 70.168 110.597 69.622 111.325 68.81L110.653 68.208C110.065 68.824 109.365 69.23 108.371 69.23C107.097 69.23 105.977 68.348 105.823 66.822ZM105.823 65.954C105.977 64.554 106.929 63.518 108.175 63.518C109.603 63.518 110.359 64.638 110.485 65.954H105.823ZM113.464 70H114.542V65.856C114.542 64.498 115.466 63.588 116.712 63.588C117.986 63.588 118.714 64.428 118.714 65.772V70H119.792V65.506C119.792 63.784 118.77 62.608 117.02 62.608C115.774 62.608 115.018 63.238 114.542 64.022V62.762H113.464V70ZM124.667 61.67H125.507L127.103 60.158L125.983 59.64L124.667 61.67ZM122.735 66.822H128.475C128.489 66.654 128.489 66.542 128.489 66.444C128.489 64.316 127.257 62.608 125.115 62.608C123.113 62.608 121.643 64.288 121.643 66.388C121.643 68.642 123.267 70.168 125.255 70.168C126.627 70.168 127.509 69.622 128.237 68.81L127.565 68.208C126.977 68.824 126.277 69.23 125.283 69.23C124.009 69.23 122.889 68.348 122.735 66.822ZM122.735 65.954C122.889 64.554 123.841 63.518 125.087 63.518C126.515 63.518 127.271 64.638 127.397 65.954H122.735ZM130.376 70H131.454V67.116C131.454 64.932 132.742 63.798 134.324 63.798H134.408V62.636C133.036 62.58 131.986 63.448 131.454 64.652V62.762H130.376V70ZM137.85 70.154C139.124 70.154 139.95 69.566 140.454 68.922V70H141.518V65.576C141.518 64.652 141.266 63.952 140.762 63.448C140.244 62.93 139.446 62.65 138.424 62.65C137.36 62.65 136.59 62.902 135.792 63.266L136.114 64.148C136.786 63.84 137.458 63.63 138.312 63.63C139.67 63.63 140.454 64.302 140.454 65.59V65.814C139.81 65.632 139.166 65.506 138.242 65.506C136.408 65.506 135.148 66.318 135.148 67.872V67.9C135.148 69.384 136.492 70.154 137.85 70.154ZM138.06 69.286C137.08 69.286 136.24 68.754 136.24 67.844V67.816C136.24 66.948 137.01 66.36 138.354 66.36C139.236 66.36 139.936 66.514 140.468 66.668V67.34C140.468 68.488 139.39 69.286 138.06 69.286ZM143.9 70H144.978V59.78H143.9V70ZM154.715 70.154C156.045 70.154 156.899 69.412 157.487 68.544V70H158.565V59.78H157.487V64.148C156.927 63.336 156.059 62.608 154.715 62.608C152.979 62.608 151.257 64.008 151.257 66.374V66.402C151.257 68.782 152.979 70.154 154.715 70.154ZM154.911 69.188C153.539 69.188 152.363 68.096 152.363 66.388V66.36C152.363 64.61 153.511 63.574 154.911 63.574C156.255 63.574 157.529 64.694 157.529 66.36V66.388C157.529 68.054 156.255 69.188 154.911 69.188ZM163.634 70.154C164.88 70.154 165.622 69.524 166.112 68.74V70H167.176V62.762H166.112V66.906C166.112 68.264 165.174 69.174 163.942 69.174C162.668 69.174 161.94 68.334 161.94 66.99V62.762H160.862V67.256C160.862 68.978 161.884 70.154 163.634 70.154ZM178.46 70.168C180.238 70.168 181.358 69.482 182.38 68.446L181.652 67.732C180.714 68.628 179.832 69.146 178.488 69.146C176.332 69.146 174.694 67.368 174.694 65.1V65.072C174.694 62.818 176.318 61.054 178.488 61.054C179.818 61.054 180.742 61.614 181.568 62.398L182.324 61.586C181.344 60.662 180.28 60.032 178.502 60.032C175.618 60.032 173.546 62.328 173.546 65.1V65.128C173.546 67.942 175.632 70.168 178.46 70.168ZM185.117 72.282C186.209 72.282 186.909 71.736 187.525 70.238L190.563 62.762H189.415L187.091 68.796L184.459 62.762H183.269L186.559 69.972C186.125 70.994 185.719 71.33 185.075 71.33C184.613 71.33 184.291 71.246 183.941 71.064L183.577 71.918C184.067 72.156 184.515 72.282 185.117 72.282ZM196.118 70.154C197.868 70.154 199.576 68.754 199.576 66.388V66.36C199.576 63.98 197.854 62.608 196.118 62.608C194.788 62.608 193.934 63.35 193.346 64.218V59.78H192.268V70H193.346V68.614C193.906 69.426 194.774 70.154 196.118 70.154ZM195.922 69.188C194.578 69.188 193.304 68.068 193.304 66.388V66.36C193.304 64.708 194.578 63.574 195.922 63.574C197.294 63.574 198.47 64.666 198.47 66.374V66.402C198.47 68.152 197.322 69.188 195.922 69.188ZM202.209 66.822H207.949C207.963 66.654 207.963 66.542 207.963 66.444C207.963 64.316 206.731 62.608 204.589 62.608C202.587 62.608 201.117 64.288 201.117 66.388C201.117 68.642 202.741 70.168 204.729 70.168C206.101 70.168 206.983 69.622 207.711 68.81L207.039 68.208C206.451 68.824 205.751 69.23 204.757 69.23C203.483 69.23 202.363 68.348 202.209 66.822ZM202.209 65.954C202.363 64.554 203.315 63.518 204.561 63.518C205.989 63.518 206.745 64.638 206.871 65.954H202.209ZM209.85 70H210.928V67.116C210.928 64.932 212.216 63.798 213.798 63.798H213.882V62.636C212.51 62.58 211.46 63.448 210.928 64.652V62.762H209.85V70ZM219.064 70H220.198L221.36 67.41H226.694L227.842 70H229.032L224.566 60.13H223.53L219.064 70ZM221.794 66.416L224.034 61.418L226.26 66.416H221.794ZM230.915 70H231.993V63.714H234.275V62.79H231.979V62.202C231.979 61.166 232.399 60.662 233.239 60.662C233.603 60.662 233.897 60.732 234.289 60.844V59.906C233.939 59.78 233.603 59.724 233.099 59.724C232.441 59.724 231.909 59.92 231.545 60.284C231.139 60.69 230.915 61.32 230.915 62.146V62.776H229.921V63.714H230.915V70ZM235.649 70H236.727V67.116C236.727 64.932 238.015 63.798 239.597 63.798H239.681V62.636C238.309 62.58 237.259 63.448 236.727 64.652V62.762H235.649V70ZM241.351 61.18H242.583V59.99H241.351V61.18ZM241.421 70H242.499V62.762H241.421V70ZM248.263 70.168C249.621 70.168 250.489 69.58 251.217 68.768L250.531 68.124C249.957 68.74 249.243 69.202 248.319 69.202C246.807 69.202 245.659 67.956 245.659 66.388V66.36C245.659 64.806 246.779 63.56 248.249 63.56C249.229 63.56 249.873 64.05 250.447 64.652L251.161 63.896C250.489 63.182 249.635 62.608 248.263 62.608C246.149 62.608 244.553 64.344 244.553 66.388V66.416C244.553 68.446 246.149 70.168 248.263 70.168ZM255.155 70.154C256.429 70.154 257.255 69.566 257.759 68.922V70H258.823V65.576C258.823 64.652 258.571 63.952 258.067 63.448C257.549 62.93 256.751 62.65 255.729 62.65C254.665 62.65 253.895 62.902 253.097 63.266L253.419 64.148C254.091 63.84 254.763 63.63 255.617 63.63C256.975 63.63 257.759 64.302 257.759 65.59V65.814C257.115 65.632 256.471 65.506 255.547 65.506C253.713 65.506 252.453 66.318 252.453 67.872V67.9C252.453 69.384 253.797 70.154 255.155 70.154ZM255.365 69.286C254.385 69.286 253.545 68.754 253.545 67.844V67.816C253.545 66.948 254.315 66.36 255.659 66.36C256.541 66.36 257.241 66.514 257.773 66.668V67.34C257.773 68.488 256.695 69.286 255.365 69.286ZM265.486 70H266.592V65.73H271.898V64.722H266.592V61.222H272.528V60.2H265.486V70ZM277.59 70.168C279.774 70.168 281.384 68.432 281.384 66.388V66.36C281.384 64.316 279.788 62.608 277.618 62.608C275.434 62.608 273.838 64.344 273.838 66.388V66.416C273.838 68.46 275.42 70.168 277.59 70.168ZM277.618 69.202C276.092 69.202 274.944 67.942 274.944 66.388V66.36C274.944 64.834 276.022 63.56 277.59 63.56C279.116 63.56 280.278 64.834 280.278 66.388V66.416C280.278 67.942 279.186 69.202 277.618 69.202ZM283.337 70H284.415V67.116C284.415 64.932 285.703 63.798 287.285 63.798H287.369V62.636C285.997 62.58 284.947 63.448 284.415 64.652V62.762H283.337V70ZM291.671 70.154C292.917 70.154 293.659 69.524 294.149 68.74V70H295.213V62.762H294.149V66.906C294.149 68.264 293.211 69.174 291.979 69.174C290.705 69.174 289.977 68.334 289.977 66.99V62.762H288.899V67.256C288.899 68.978 289.921 70.154 291.671 70.154ZM297.638 70H298.716V65.87C298.716 64.54 299.584 63.588 300.732 63.588C301.88 63.588 302.594 64.386 302.594 65.744V70H303.658V65.828C303.658 64.4 304.568 63.588 305.66 63.588C306.836 63.588 307.536 64.372 307.536 65.772V70H308.614V65.52C308.614 63.728 307.592 62.608 305.926 62.608C304.666 62.608 303.896 63.252 303.378 64.05C302.986 63.238 302.23 62.608 301.054 62.608C299.836 62.608 299.192 63.266 298.716 63.98V62.762H297.638V70Z" fill="black"/>
<path d="M28.176 9.096C27.504 9.144 24 9.24 17.712 9.384C16.8 9.384 15.456 9.384 13.68 9.432C11.904 9.432 10.656 9.432 9.84 9.48L9.984 7.896C9.984 7.368 9.552 6.984 9.12 6.984C8.592 6.936 8.208 7.368 8.208 7.8C8.208 7.944 8.064 8.904 8.016 9.48H4.512C3.456 9.48 3.456 11.064 4.464 11.064H7.824L7.104 16.392C7.008 16.92 6.672 19.224 6.144 23.256C2.016 23.88 0 25.224 0.048 27.24C0.048 28.392 1.104 30.072 1.92 31.08C2.352 31.608 2.976 32.376 3.888 33.384L4.848 34.44C4.128 42.648 4.368 47.208 5.664 48.216L5.76 48.264C6.72 48.984 7.872 48.552 9.216 46.872C10.992 44.616 11.424 42.312 10.512 40.008C9.696 37.704 8.544 36.072 6.624 33.816C6.912 30.936 7.296 27.912 7.728 24.792C9.024 24.648 10.32 24.6 11.52 24.552H11.808C14.544 24.456 16.896 24.456 18.768 24.6C19.344 24.648 19.68 24.408 19.728 23.784C19.776 23.352 19.44 22.872 18.912 22.824C16.944 22.68 14.592 22.68 11.76 22.776H11.472C10.512 22.824 9.36 22.872 7.968 23.016L8.4 19.848L8.832 16.632C8.976 15.864 9.12 14.856 9.264 13.656L9.648 11.064C10.464 11.016 11.76 11.016 13.584 11.016C15.456 10.968 16.8 10.968 17.712 10.968L28.224 10.68C28.656 10.68 28.992 10.296 28.992 9.864C28.944 9.336 28.656 9.096 28.176 9.096ZM5.088 31.992C2.928 29.64 1.872 28.008 1.824 27.144C1.776 26.136 3.12 25.416 5.904 25.032C5.568 27.768 5.28 30.072 5.088 31.992ZM7.824 45.768C7.2 46.488 6.864 46.872 6.768 46.872V46.824C5.952 46.2 5.856 42.696 6.384 36.312C9.312 40.104 9.792 43.272 7.824 45.768ZM12.8906 34.44C12.8906 36.84 13.8986 38.04 15.8666 38.04C16.2506 38.04 17.3066 37.848 17.4506 37.848C17.6906 37.8 17.9306 37.704 18.0746 37.704L18.1706 37.656C18.0746 37.656 18.0266 37.704 17.9786 37.752C17.9306 38.088 17.7386 38.568 17.4026 39.192C16.7786 40.296 16.4906 41.208 16.4906 42.024C16.4906 42.744 16.7306 43.368 17.2106 43.848H17.2586C17.6906 44.28 18.2666 44.52 19.0346 44.616C20.1386 44.76 21.5306 44.568 23.1626 43.944C24.7466 43.32 26.2346 42.456 27.5306 41.304C29.0186 40.056 30.5546 38.472 32.1386 36.504C32.4746 36.072 32.4266 35.64 31.9946 35.256C31.5146 34.92 31.0826 34.968 30.7466 35.4C29.1626 37.368 27.7226 38.856 26.4266 39.96C25.1306 41.016 23.8346 41.784 22.5386 42.264C21.2426 42.792 20.1386 42.984 19.2266 42.888C18.8906 42.84 18.6506 42.744 18.4586 42.6V42.552C18.3146 42.456 18.2666 42.264 18.2666 42.024C18.2666 41.496 18.5066 40.824 18.9386 40.056C19.2746 39.432 19.5626 38.808 19.7546 38.136C19.8986 37.224 19.7066 36.6 19.2746 36.264C18.8906 35.928 18.1706 35.88 17.1626 36.072C16.7306 36.168 16.2986 36.216 15.8666 36.216C15.0506 36.216 14.6666 35.64 14.6666 34.44C14.6666 33.912 14.2826 33.528 13.7546 33.528C13.3226 33.528 12.8906 33.912 12.8906 34.44ZM38.6771 35.016C37.4291 34.44 36.2771 34.056 35.1731 33.912C33.6851 33.72 32.4371 33.96 31.4291 34.632C30.5651 35.16 29.8451 36.024 29.3171 37.128C28.9331 37.992 28.6451 39.048 28.4531 40.296C28.3091 41.304 28.4051 42.168 28.7411 42.888C29.1731 43.752 29.9411 44.232 30.9971 44.28C31.8131 44.328 32.7251 44.184 33.7331 43.752C35.1731 43.224 38.9171 40.728 38.6771 40.92C39.0131 42.6 39.5411 43.752 40.3571 44.424C42.1331 45.96 44.7731 45.192 48.3251 42.12C50.1971 40.488 51.5411 39.048 52.2611 37.752C52.8371 36.504 51.5891 35.592 50.6291 36.84C48.8531 39.144 47.0771 40.92 45.3491 42.12C42.1331 44.328 40.5491 43.32 40.5011 39.048C40.5011 38.232 39.5891 37.752 38.9651 38.328C37.8131 39.48 35.2211 41.304 33.1091 42.12C32.1971 42.408 31.5251 42.552 31.0931 42.504C30.7091 42.456 30.4691 42.312 30.3251 42.072C30.1811 41.736 30.1331 41.208 30.2291 40.488C30.3731 39.432 30.6131 38.568 30.9491 37.896C31.2371 37.176 31.7171 36.552 32.3411 36.12C33.0611 35.688 33.9731 35.544 34.9811 35.688C35.8931 35.784 36.8531 36.072 37.9571 36.6C38.4851 36.888 38.8691 36.744 39.1091 36.168C39.3491 35.64 39.2051 35.256 38.6771 35.016ZM51.1406 34.152C51.1406 35.688 51.1886 37.272 51.3326 38.904C51.4766 40.776 51.6206 42.312 51.8126 43.56C51.8606 44.136 52.1966 44.376 52.7726 44.328C53.0126 44.28 53.1566 44.184 53.2526 44.088L53.9726 43.224C56.5166 39.72 58.6766 38.136 60.4526 38.472C60.6446 38.52 60.9326 38.856 61.2686 39.528V39.576C61.9886 40.872 62.3246 41.304 63.3326 42.024C64.4366 42.648 66.1166 42.456 68.4686 41.352C70.0046 40.584 72.1646 39.144 74.9966 37.032L75.9566 36.264C76.3886 35.928 76.4846 35.496 76.1486 35.016C75.8126 34.584 75.3806 34.536 74.9006 34.872L73.8926 35.592C71.2526 37.608 69.1886 39 67.7006 39.72C64.2926 41.352 63.4286 39.96 62.8526 38.76V38.712C62.3246 37.704 61.9406 36.888 60.7886 36.696C58.4366 36.264 55.9406 37.752 53.3006 41.16C53.2526 40.68 53.1566 39.912 53.1086 38.808C52.9646 37.224 52.9166 35.688 52.9166 34.152C52.9166 33.624 52.5326 33.24 52.0046 33.24C51.5726 33.24 51.1406 33.624 51.1406 34.152ZM79.71 34.584C78.846 34.2 78.03 34.008 77.31 34.008C76.398 34.008 75.582 34.296 74.862 34.824C74.238 35.352 73.71 35.976 73.374 36.744C72.558 38.472 72.51 41.4 73.422 42.984C74.142 44.376 75.39 45 77.166 44.904C78.462 44.856 80.094 44.376 81.966 43.464C85.854 41.592 88.782 39.672 90.75 37.704C91.182 37.272 91.23 36.888 90.798 36.456C90.366 36.024 89.934 36.024 89.502 36.456C87.534 38.328 84.798 40.152 81.198 41.88C79.566 42.696 78.174 43.08 77.07 43.128C76.062 43.176 75.39 42.888 74.958 42.168C74.67 41.64 74.526 40.872 74.526 39.864C74.526 38.952 74.67 38.136 75.006 37.464C75.246 36.888 75.582 36.456 75.918 36.216C76.302 35.928 76.782 35.784 77.31 35.784C77.838 35.784 78.366 35.928 78.99 36.168C79.518 36.456 79.902 36.312 80.142 35.736C80.382 35.208 80.238 34.824 79.71 34.584ZM89.6719 37.896C89.6719 39.96 89.7199 41.352 89.7679 42.168C89.9119 43.464 90.0559 44.232 90.2479 44.568C90.5839 45.096 91.0159 45.192 91.4959 44.856C91.6879 44.76 91.8319 44.568 91.8799 44.28C92.1199 43.512 92.3119 42.792 92.5519 42.168C92.6959 41.64 92.8399 41.208 92.9839 40.92C92.8879 41.4 92.9359 41.832 93.0799 42.264C93.2719 42.84 93.7039 43.32 94.3279 43.656C95.3839 44.28 96.8239 44.424 98.5999 44.136C99.9439 43.944 101.768 43.08 104.024 41.592C107.288 39.576 109.496 38.088 110.648 37.08C111.032 36.84 111.128 36.216 110.792 35.88C110.408 35.448 109.976 35.4 109.544 35.736C108.44 36.648 106.28 38.136 103.064 40.104C101 41.448 99.4639 42.216 98.3599 42.408C96.9199 42.6 95.8639 42.504 95.1919 42.12C94.9519 41.976 94.8079 41.784 94.7599 41.64C94.6639 41.496 94.6639 41.304 94.8079 41.016C95.1439 40.104 96.1999 39.144 97.9279 38.136C99.7519 37.032 100.808 35.976 101.096 34.968C101.336 34.008 101.048 33.336 100.232 33C99.7039 32.712 98.9839 32.712 98.0719 32.952C95.9599 33.528 93.4639 35.64 91.7359 39.288V39.336C91.6399 39.48 91.5439 39.72 91.4479 39.96V37.992L91.5919 36.216C91.6399 36.024 91.9279 35.208 92.1199 34.776L92.6479 33.288C92.9839 32.472 93.2239 31.8 93.3679 31.272C97.8319 18.552 98.8399 11.784 96.2959 10.872C96.2479 10.824 96.0559 10.824 96.0079 10.776C94.9999 10.632 94.1839 11.592 93.4639 13.512C93.0319 14.712 92.5039 16.68 91.9759 19.368C91.1119 24.072 90.3919 29.592 89.8159 35.976V36.024L89.6719 37.896ZM92.3599 28.824C92.7919 25.416 93.2239 22.392 93.7519 19.704C94.1839 17.304 94.6639 15.432 95.1439 14.136C95.5279 13.128 95.7199 12.6 95.7679 12.552C97.0639 13.176 95.9119 18.6 92.3599 28.824ZM98.5519 34.632C98.7919 34.584 99.0319 34.536 99.3199 34.536C99.1759 35.064 98.4079 35.784 97.0159 36.6C95.3359 37.608 94.1839 38.616 93.5599 39.624C94.9519 36.888 96.5839 35.256 98.5519 34.632ZM151.576 42.744C149.944 43.992 148.456 44.616 147.112 44.616C145.912 44.616 144.664 44.088 143.32 43.032C142.024 42.024 140.536 40.2 139.816 39.288L138.232 37.08L138.184 37.032C136.888 35.16 135.88 33.816 135.112 32.952C138.28 30.12 144.088 22.44 152.488 9.912L152.824 9.384C153.16 8.856 153.064 8.472 152.584 8.136C152.2 7.896 151.624 7.992 151.384 8.376L151 8.904C143.464 20.232 138.04 27.528 134.824 30.792C135.352 22.056 135.88 15.048 136.312 9.768C136.312 9.144 136.024 8.808 135.448 8.808C134.92 8.76 134.536 9.192 134.536 9.624C134.152 13.8 133.576 21.768 132.856 33.624C132.472 40.008 132.328 43.944 132.376 45.432C132.424 45.96 132.904 46.296 133.336 46.248C133.96 46.2 134.2 45.864 134.152 45.288C134.104 44.28 134.248 40.872 134.584 35.112C135.064 35.736 135.784 36.696 136.744 38.04L136.792 38.088C138.856 41.016 140.632 43.128 142.216 44.376C143.848 45.72 145.48 46.392 147.112 46.392C148.792 46.392 150.664 45.672 152.632 44.184C153.064 43.8 153.16 43.368 152.824 42.936C152.44 42.504 152.008 42.408 151.576 42.744ZM167.548 35.544C167.116 35.16 166.684 35.16 166.252 35.544C164.092 37.704 162.172 39.432 160.54 40.728C157.66 42.984 155.452 44.088 153.964 43.944C152.86 43.896 152.38 42.936 152.524 41.064L153.004 37.56L153.292 35.928C153.34 35.4 153.1 35.064 152.524 34.92C151.996 34.872 151.66 35.112 151.516 35.688C151.516 35.736 151.42 36.264 151.276 37.272C151.036 38.616 150.844 39.816 150.748 40.92C150.556 43.992 151.564 45.576 153.82 45.72C155.788 45.864 158.428 44.664 161.644 42.12C163.324 40.824 165.292 39.048 167.548 36.792C167.98 36.36 167.98 35.976 167.548 35.544ZM153.004 33.864C153.82 33.864 154.204 33.48 154.204 32.712C154.204 31.704 153.82 31.224 153.004 31.224C152.188 31.224 151.66 31.896 151.66 32.664C151.66 33.48 152.092 33.864 153.004 33.864ZM166.073 40.488C165.929 39.96 166.025 39.288 166.313 38.472C166.697 37.656 167.225 36.984 167.849 36.504C168.185 36.264 168.617 36.024 169.145 35.88C169.817 35.688 170.345 35.832 170.729 36.264C171.065 36.648 171.113 37.08 170.921 37.704C170.393 39 168.761 39.96 166.121 40.488H166.073ZM172.553 38.376C172.793 37.848 172.841 37.272 172.793 36.648C172.697 36.024 172.457 35.544 172.073 35.112C171.257 34.104 170.105 33.816 168.713 34.152H168.665C168.041 34.344 167.417 34.632 166.841 35.064C165.881 35.736 165.161 36.648 164.681 37.8C164.249 39 164.153 40.104 164.393 41.208C164.537 41.736 164.777 42.216 165.113 42.648C165.833 43.704 166.889 44.376 168.185 44.712C169.385 44.952 170.777 44.856 172.265 44.424C173.561 44.04 175.145 43.176 177.065 41.832C178.841 40.584 180.617 39.096 182.393 37.368C182.777 36.936 182.777 36.504 182.393 36.12C181.961 35.688 181.577 35.64 181.145 36.072C179.561 37.656 177.833 39.096 176.057 40.392C174.329 41.592 172.889 42.36 171.737 42.744C170.537 43.08 169.481 43.176 168.569 42.984C167.993 42.84 167.465 42.552 166.937 42.12C169.961 41.4 171.833 40.152 172.553 38.376Z" fill="#000451"/>
</svg>
