<svg width="84" height="84" viewBox="0 0 84 84" fill="none" xmlns="http://www.w3.org/2000/svg">
<circle cx="42" cy="42" r="37" fill="#E94F35" stroke="#FBFBFB" stroke-width="10"/>
<path d="M37.25 51.3281C37.25 51.5625 37.3438 51.9375 37.4844 52.125L38.2812 53.3438C38.5156 53.7188 39.0781 54 39.5469 54H42.4062C42.875 54 43.4375 53.7188 43.6719 53.3438L44.4688 52.125C44.6094 51.9375 44.7031 51.5625 44.75 51.3281V49.5H37.25V51.3281ZM40.9531 30C36.1719 30.0469 32.75 33.8906 32.75 38.25V38.2969C32.75 39.9844 33.6406 42.4219 34.7656 43.6875C35.5625 44.5781 36.7344 46.4062 37.2031 48H44.75C45.2188 46.4062 46.3906 44.5781 47.1875 43.6875C48.3125 42.4219 49.25 39.9844 49.25 38.2969V38.25C49.25 33.7031 45.5 30 40.9531 30ZM41 34.5C38.8906 34.5469 37.25 36.1875 37.25 38.25C37.25 38.6719 36.875 39 36.5 39C36.0781 39 35.75 38.6719 35.75 38.25C35.75 35.3906 38.0938 33.0469 41 33C41.375 33 41.75 33.375 41.75 33.75C41.75 34.1719 41.375 34.5 41 34.5ZM31.25 39C31.25 38.3906 30.7344 37.875 30.125 37.875H27.125C26.4688 37.875 26 38.3906 26 39C26 39.6562 26.4688 40.125 27.125 40.125H30.125C30.7344 40.125 31.25 39.6562 31.25 39ZM54.875 37.875H51.875C51.2188 37.875 50.75 38.3906 50.75 39C50.75 39.6562 51.2188 40.125 51.875 40.125H54.875C55.4844 40.125 56 39.6562 56 39C56 38.3906 55.4844 37.875 54.875 37.875ZM32.1406 32.625L29.5156 31.125C29.375 31.0312 29.0938 30.9375 28.9531 30.9375C28.3438 30.9375 27.8281 31.4531 27.8281 32.0625C27.8281 32.4375 28.0625 32.8594 28.3906 33.0469L31.0156 34.5469C31.1562 34.6406 31.3906 34.7344 31.5781 34.7344C32.1875 34.7344 32.7031 34.2188 32.7031 33.6094C32.7031 33.2344 32.4219 32.8125 32.1406 32.625ZM53.5625 45L50.9375 43.5C50.7969 43.4062 50.5625 43.3125 50.375 43.3125C49.7656 43.3125 49.25 43.8281 49.25 44.4375C49.25 44.8125 49.5312 45.2344 49.8125 45.4219L52.4375 46.9219C52.5781 47.0156 52.8125 47.0625 52.9531 47.0625C53.6094 47.0625 54.0781 46.5938 54.0781 45.9375C54.0781 45.6094 53.8438 45.1875 53.5625 45ZM31.0156 43.5L28.3906 45C28.0625 45.1875 27.8281 45.6094 27.8281 45.9844C27.8281 46.5938 28.3438 47.1094 28.9531 47.1094C29.0938 47.1094 29.375 47.0156 29.5156 46.9219L32.1406 45.4219C32.4219 45.2344 32.6562 44.8125 32.6562 44.4844C32.6562 43.8281 32.1406 43.3594 31.5312 43.3594C31.3906 43.3594 31.1562 43.4062 31.0156 43.5ZM50.375 34.6875C50.5625 34.6875 50.7969 34.6406 50.9375 34.5469L53.5625 33.0469C53.8438 32.8594 54.0781 32.4375 54.0781 32.1094C54.0781 31.4531 53.6094 30.9844 52.9531 30.9844C52.8125 30.9844 52.5781 31.0312 52.4375 31.125L49.8125 32.625C49.5312 32.8125 49.25 33.2344 49.25 33.5625C49.25 34.2188 49.7656 34.6875 50.375 34.6875Z" fill="white"/>
</svg>
